<svg width="74" height="47" viewBox="0 0 74 47" fill="none" xmlns="http://www.w3.org/2000/svg">
<rect x="3.33649" y="3.62555" width="66.7299" height="40.0379" rx="3" fill="#C4C4C4"/>
<rect x="0.5" y="0.789062" width="72.4028" height="45.7109" rx="2.5" stroke="black" stroke-opacity="0.6"/>
<mask id="mask0_8_115" style="mask-type:alpha" maskUnits="userSpaceOnUse" x="3" y="3" width="68" height="41">
<rect x="3.33649" y="3.62555" width="66.7299" height="40.0379" rx="3" fill="#C4C4C4"/>
</mask>
<g mask="url(#mask0_8_115)">
<path d="M65.6872 -12.4965H7.71563C5.2971 -12.4965 3.33649 -9.7516 3.33649 -6.36565V39.7614C3.33649 43.1473 5.2971 45.8922 7.71563 45.8922H65.6872C68.1057 45.8922 70.0663 43.1473 70.0663 39.7614V-6.36565C70.0663 -9.7516 68.1057 -12.4965 65.6872 -12.4965Z" fill="url(#paint0_linear_8_115)"/>
<path style="mix-blend-mode:soft-light" fill-rule="evenodd" clip-rule="evenodd" d="M66.7299 -32.5154C57.556 -0.21928 45.556 21.3381 30.7299 32.1566C15.9038 42.9752 -6.01727 47.403 -35.0332 45.4399V-32.5154H66.7299Z" fill="url(#paint1_linear_8_115)"/>
<g style="mix-blend-mode:overlay" opacity="0.8">
<path fill-rule="evenodd" clip-rule="evenodd" d="M91.7535 -32.5154C80.6246 -0.21928 66.0672 21.3381 48.0814 32.1566C30.0956 42.9752 3.50293 47.403 -31.6967 45.4399V-32.5154H91.7535Z" fill="url(#paint2_linear_8_115)" style="mix-blend-mode:soft-light"/>
</g>
<path style="mix-blend-mode:soft-light" opacity="0.7" fill-rule="evenodd" clip-rule="evenodd" d="M42.8315 -43.0853C43.7188 -14.7798 38.8512 6.15994 28.2288 19.734C17.6063 33.308 -1.47017 44.3833 -29.0007 52.9599L-51.7158 -7.65286L42.8315 -43.0853Z" fill="url(#paint3_linear_8_115)"/>
</g>
<defs>
<linearGradient id="paint0_linear_8_115" x1="73.1943" y1="-12.4965" x2="2.09434" y2="-10.6995" gradientUnits="userSpaceOnUse">
<stop offset="0.133662" stop-color="#262A2F"/>
<stop offset="1" stop-color="#262A2F"/>
</linearGradient>
<linearGradient id="paint1_linear_8_115" x1="-37.7651" y1="22.7708" x2="25.3814" y2="-44.8241" gradientUnits="userSpaceOnUse">
<stop stop-color="white"/>
<stop offset="1" stop-color="#D8D8D8" stop-opacity="0"/>
</linearGradient>
<linearGradient id="paint2_linear_8_115" x1="-35.0108" y1="22.7708" x2="26.1817" y2="-56.6921" gradientUnits="userSpaceOnUse">
<stop stop-color="white"/>
<stop offset="1" stop-color="#D8D8D8" stop-opacity="0"/>
</linearGradient>
<linearGradient id="paint3_linear_8_115" x1="-38.1444" y1="36.2852" x2="-13.2794" y2="-42.6999" gradientUnits="userSpaceOnUse">
<stop stop-color="white"/>
<stop offset="1" stop-color="#D8D8D8" stop-opacity="0"/>
</linearGradient>
</defs>
</svg>
