<svg width="64" height="64" viewBox="0 0 64 64" fill="none" xmlns="http://www.w3.org/2000/svg">
<g clip-path="url(#clip0_0_124)">
<path d="M52 64H12C5.372 64 0 58.628 0 52V12C0 5.372 5.372 0 12 0H52C58.628 0 64 5.372 64 12V52C64 58.628 58.628 64 52 64Z" fill="white"/>
<path d="M35 16H19.666C17.64 16 16 17.64 16 19.666V40.332C16 42.36 17.64 44 19.666 44H30.532C29.412 42.226 28.666 40.134 28.666 37.734V34.48C28.466 34.6 28.24 34.666 28 34.666H21.334C20.6 34.666 20 34.066 20 33.332C20 32.598 20.6 32 21.334 32H28C28.254 32 28.48 32.066 28.68 32.186C28.734 31.052 29.266 30.012 30.106 29.332H21.332C20.6 29.334 20 28.734 20 28C20 27.266 20.6 26.666 21.334 26.666H33.334C33.894 26.666 34.374 27.012 34.574 27.506L38.374 26.212C38.468 26.172 38.56 26.146 38.668 26.132V19.666C38.666 17.64 37.026 16 35 16ZM26.666 24H21.332C20.6 24 20 23.4 20 22.666C20 21.932 20.6 21.332 21.334 21.332H26.668C27.402 21.332 28.002 21.932 28.002 22.666C28.002 23.4 27.4 24 26.666 24Z" fill="#80C3FF"/>
<path d="M47.096 31.118L40.096 28.738C39.818 28.642 39.516 28.642 39.236 28.738L32.236 31.118C31.696 31.302 31.332 31.81 31.332 32.38V37.738C31.332 44.494 38.824 47.758 39.144 47.894C39.312 47.964 39.49 48 39.666 48C39.844 48 40.022 47.964 40.188 47.894C40.508 47.758 48 44.494 48 37.738V32.38C48 31.81 47.636 31.302 47.096 31.118ZM44.4 36.134L40.4 41.468C40.168 41.778 39.814 41.97 39.428 41.998C39.396 41.998 39.364 42 39.334 42C38.982 42 38.642 41.86 38.392 41.61L35.726 38.944C35.206 38.424 35.206 37.58 35.726 37.058C36.246 36.536 37.09 36.538 37.612 37.058L39.192 38.638L42.27 34.534C42.712 33.946 43.548 33.826 44.136 34.268C44.722 34.708 44.842 35.544 44.4 36.134Z" fill="#B3DBFF"/>
</g>
<defs>
<clipPath id="clip0_0_124">
<rect width="64" height="64" fill="white"/>
</clipPath>
</defs>
</svg>
