<svg width="328" height="272" viewBox="0 0 328 272" fill="none" xmlns="http://www.w3.org/2000/svg">
<g clip-path="url(#clip0_2_7)">
<rect width="328" height="272" fill="#D5DEFF"/>
<path d="M0 0H328V272H0V0Z" fill="#BFE1FF"/>
<rect x="216" y="221" width="86" height="32" rx="16" fill="#84B5F3"/>
<path d="M249.3 242H247.57L243.134 234.938V242H241.404V232.047H243.134L247.584 239.136V232.047H249.3V242ZM255.603 242C255.53 241.859 255.466 241.629 255.411 241.31C254.882 241.861 254.235 242.137 253.47 242.137C252.727 242.137 252.121 241.925 251.651 241.501C251.182 241.077 250.947 240.553 250.947 239.929C250.947 239.14 251.239 238.536 251.822 238.117C252.41 237.693 253.249 237.481 254.338 237.481H255.356V236.996C255.356 236.613 255.249 236.308 255.035 236.08C254.821 235.848 254.495 235.731 254.058 235.731C253.679 235.731 253.369 235.827 253.128 236.019C252.886 236.205 252.766 236.445 252.766 236.736H251.104C251.104 236.331 251.239 235.952 251.508 235.602C251.777 235.246 252.141 234.968 252.602 234.768C253.066 234.567 253.584 234.467 254.153 234.467C255.019 234.467 255.71 234.686 256.225 235.123C256.74 235.556 257.004 236.167 257.018 236.955V240.291C257.018 240.956 257.111 241.487 257.298 241.884V242H255.603ZM253.777 240.804C254.105 240.804 254.413 240.724 254.7 240.564C254.992 240.405 255.211 240.191 255.356 239.922V238.527H254.461C253.846 238.527 253.383 238.634 253.073 238.849C252.763 239.063 252.608 239.366 252.608 239.758C252.608 240.077 252.713 240.332 252.923 240.523C253.137 240.71 253.422 240.804 253.777 240.804ZM260.319 234.604L260.367 235.376C260.887 234.77 261.598 234.467 262.5 234.467C263.489 234.467 264.166 234.845 264.53 235.602C265.068 234.845 265.825 234.467 266.8 234.467C267.616 234.467 268.222 234.692 268.618 235.144C269.019 235.595 269.224 236.26 269.233 237.14V242H267.572V237.188C267.572 236.718 267.47 236.374 267.265 236.155C267.06 235.937 266.72 235.827 266.246 235.827C265.868 235.827 265.558 235.93 265.316 236.135C265.079 236.335 264.913 236.6 264.817 236.928L264.824 242H263.163V237.133C263.14 236.262 262.696 235.827 261.83 235.827C261.165 235.827 260.693 236.098 260.415 236.641V242H258.754V234.604H260.319ZM274.196 242.137C273.144 242.137 272.289 241.806 271.633 241.146C270.981 240.48 270.655 239.596 270.655 238.493V238.288C270.655 237.55 270.797 236.891 271.079 236.312C271.366 235.729 271.767 235.276 272.282 234.952C272.797 234.629 273.371 234.467 274.005 234.467C275.012 234.467 275.789 234.788 276.336 235.431C276.887 236.073 277.163 236.982 277.163 238.158V238.828H272.33C272.38 239.439 272.583 239.922 272.938 240.277C273.299 240.633 273.75 240.811 274.292 240.811C275.053 240.811 275.673 240.503 276.151 239.888L277.047 240.742C276.751 241.184 276.354 241.528 275.857 241.774C275.365 242.016 274.812 242.137 274.196 242.137ZM273.998 235.8C273.542 235.8 273.173 235.959 272.891 236.278C272.613 236.597 272.435 237.042 272.357 237.611H275.522V237.488C275.486 236.932 275.338 236.513 275.078 236.23C274.818 235.943 274.458 235.8 273.998 235.8Z" fill="white"/>
<rect x="202" y="19" width="100" height="32" rx="16" fill="#84B5F3"/>
<path d="M232.634 37.6826H228.778L227.972 40H226.174L229.934 30.0469H231.485L235.252 40H233.447L232.634 37.6826ZM229.264 36.2881H232.148L230.706 32.1592L229.264 36.2881ZM235.915 36.2471C235.915 35.1077 236.179 34.194 236.708 33.5059C237.237 32.8132 237.945 32.4668 238.834 32.4668C239.618 32.4668 240.251 32.7402 240.734 33.2871V29.5H242.396V40H240.892L240.81 39.2344C240.313 39.8359 239.65 40.1367 238.82 40.1367C237.954 40.1367 237.253 39.7881 236.715 39.0908C236.182 38.3936 235.915 37.4456 235.915 36.2471ZM237.576 36.3906C237.576 37.1426 237.72 37.7305 238.007 38.1543C238.299 38.5736 238.711 38.7832 239.244 38.7832C239.923 38.7832 240.42 38.4801 240.734 37.874V34.7158C240.429 34.1234 239.937 33.8271 239.258 33.8271C238.72 33.8271 238.305 34.0413 238.014 34.4697C237.722 34.8936 237.576 35.5339 237.576 36.3906ZM243.817 36.2471C243.817 35.1077 244.082 34.194 244.61 33.5059C245.139 32.8132 245.848 32.4668 246.736 32.4668C247.52 32.4668 248.154 32.7402 248.637 33.2871V29.5H250.298V40H248.794L248.712 39.2344C248.215 39.8359 247.552 40.1367 246.723 40.1367C245.857 40.1367 245.155 39.7881 244.617 39.0908C244.084 38.3936 243.817 37.4456 243.817 36.2471ZM245.479 36.3906C245.479 37.1426 245.622 37.7305 245.909 38.1543C246.201 38.5736 246.613 38.7832 247.146 38.7832C247.826 38.7832 248.322 38.4801 248.637 37.874V34.7158C248.331 34.1234 247.839 33.8271 247.16 33.8271C246.622 33.8271 246.208 34.0413 245.916 34.4697C245.624 34.8936 245.479 35.5339 245.479 36.3906ZM255.903 34.1211C255.685 34.0846 255.459 34.0664 255.227 34.0664C254.465 34.0664 253.953 34.3581 253.688 34.9414V40H252.027V32.6035H253.613L253.654 33.4307C254.055 32.7881 254.611 32.4668 255.322 32.4668C255.559 32.4668 255.755 32.4987 255.91 32.5625L255.903 34.1211ZM260.073 40.1367C259.021 40.1367 258.166 39.8063 257.51 39.1455C256.858 38.4801 256.532 37.596 256.532 36.4932V36.2881C256.532 35.5498 256.674 34.8913 256.956 34.3125C257.243 33.7292 257.644 33.2757 258.159 32.9521C258.674 32.6286 259.248 32.4668 259.882 32.4668C260.889 32.4668 261.666 32.7881 262.213 33.4307C262.764 34.0732 263.04 34.9824 263.04 36.1582V36.8281H258.207C258.257 37.4388 258.46 37.9219 258.815 38.2773C259.175 38.6328 259.627 38.8105 260.169 38.8105C260.93 38.8105 261.55 38.5029 262.028 37.8877L262.924 38.7422C262.628 39.1842 262.231 39.5283 261.734 39.7744C261.242 40.016 260.688 40.1367 260.073 40.1367ZM259.875 33.7998C259.419 33.7998 259.05 33.9593 258.768 34.2783C258.49 34.5973 258.312 35.0417 258.234 35.6113H261.399V35.4883C261.363 34.9323 261.215 34.513 260.955 34.2305C260.695 33.9434 260.335 33.7998 259.875 33.7998ZM268.481 37.9902C268.481 37.694 268.358 37.4684 268.112 37.3135C267.871 37.1585 267.467 37.0218 266.902 36.9033C266.337 36.7848 265.866 36.6344 265.487 36.4521C264.658 36.0511 264.243 35.4701 264.243 34.709C264.243 34.071 264.512 33.5378 265.05 33.1094C265.588 32.681 266.271 32.4668 267.101 32.4668C267.985 32.4668 268.698 32.6855 269.24 33.123C269.787 33.5605 270.061 34.1279 270.061 34.8252H268.399C268.399 34.5062 268.281 34.2419 268.044 34.0322C267.807 33.818 267.493 33.7109 267.101 33.7109C266.736 33.7109 266.438 33.7952 266.205 33.9639C265.977 34.1325 265.863 34.3581 265.863 34.6406C265.863 34.8958 265.97 35.0941 266.185 35.2354C266.399 35.3766 266.832 35.5202 267.483 35.666C268.135 35.8073 268.646 35.9782 269.015 36.1787C269.388 36.3747 269.664 36.6117 269.842 36.8896C270.024 37.1676 270.115 37.5049 270.115 37.9014C270.115 38.5667 269.84 39.1068 269.288 39.5215C268.737 39.9316 268.014 40.1367 267.121 40.1367C266.515 40.1367 265.975 40.0273 265.501 39.8086C265.027 39.5898 264.658 39.2891 264.394 38.9062C264.129 38.5234 263.997 38.111 263.997 37.6689H265.61C265.633 38.0609 265.781 38.3639 266.055 38.5781C266.328 38.7878 266.69 38.8926 267.142 38.8926C267.579 38.8926 267.912 38.8105 268.14 38.6465C268.368 38.4779 268.481 38.2591 268.481 37.9902ZM275.714 37.9902C275.714 37.694 275.591 37.4684 275.345 37.3135C275.103 37.1585 274.7 37.0218 274.135 36.9033C273.57 36.7848 273.098 36.6344 272.72 36.4521C271.89 36.0511 271.476 35.4701 271.476 34.709C271.476 34.071 271.744 33.5378 272.282 33.1094C272.82 32.681 273.504 32.4668 274.333 32.4668C275.217 32.4668 275.93 32.6855 276.473 33.123C277.02 33.5605 277.293 34.1279 277.293 34.8252H275.632C275.632 34.5062 275.513 34.2419 275.276 34.0322C275.039 33.818 274.725 33.7109 274.333 33.7109C273.968 33.7109 273.67 33.7952 273.438 33.9639C273.21 34.1325 273.096 34.3581 273.096 34.6406C273.096 34.8958 273.203 35.0941 273.417 35.2354C273.631 35.3766 274.064 35.5202 274.716 35.666C275.368 35.8073 275.878 35.9782 276.247 36.1787C276.621 36.3747 276.896 36.6117 277.074 36.8896C277.257 37.1676 277.348 37.5049 277.348 37.9014C277.348 38.5667 277.072 39.1068 276.521 39.5215C275.969 39.9316 275.247 40.1367 274.354 40.1367C273.747 40.1367 273.207 40.0273 272.733 39.8086C272.259 39.5898 271.89 39.2891 271.626 38.9062C271.362 38.5234 271.229 38.111 271.229 37.6689H272.843C272.866 38.0609 273.014 38.3639 273.287 38.5781C273.561 38.7878 273.923 38.8926 274.374 38.8926C274.812 38.8926 275.144 38.8105 275.372 38.6465C275.6 38.4779 275.714 38.2591 275.714 37.9902Z" fill="white"/>
<rect x="160" y="141" width="142" height="32" rx="16" fill="#84B5F3"/>
<path d="M186.874 158.302V162H185.145V152.047H188.952C190.064 152.047 190.946 152.336 191.598 152.915C192.254 153.494 192.582 154.259 192.582 155.212C192.582 156.187 192.261 156.946 191.618 157.488C190.98 158.031 190.085 158.302 188.932 158.302H186.874ZM186.874 156.914H188.952C189.567 156.914 190.037 156.771 190.36 156.483C190.684 156.192 190.846 155.772 190.846 155.226C190.846 154.688 190.682 154.259 190.354 153.94C190.025 153.617 189.574 153.451 189 153.441H186.874V156.914ZM195.576 155.41C196.118 154.781 196.804 154.467 197.634 154.467C199.211 154.467 200.01 155.367 200.033 157.167V162H198.372V157.229C198.372 156.718 198.26 156.358 198.037 156.148C197.818 155.934 197.495 155.827 197.066 155.827C196.401 155.827 195.904 156.123 195.576 156.716V162H193.915V151.5H195.576V155.41ZM201.407 158.233C201.407 157.509 201.551 156.857 201.838 156.278C202.125 155.695 202.528 155.248 203.048 154.938C203.567 154.624 204.164 154.467 204.839 154.467C205.837 154.467 206.646 154.788 207.266 155.431C207.89 156.073 208.227 156.925 208.277 157.987L208.284 158.377C208.284 159.106 208.143 159.758 207.86 160.332C207.582 160.906 207.181 161.351 206.657 161.665C206.138 161.979 205.536 162.137 204.853 162.137C203.809 162.137 202.973 161.79 202.344 161.098C201.719 160.4 201.407 159.473 201.407 158.315V158.233ZM203.068 158.377C203.068 159.138 203.226 159.735 203.54 160.168C203.854 160.596 204.292 160.811 204.853 160.811C205.413 160.811 205.848 160.592 206.158 160.154C206.473 159.717 206.63 159.076 206.63 158.233C206.63 157.486 206.468 156.894 206.145 156.456C205.826 156.019 205.39 155.8 204.839 155.8C204.297 155.8 203.866 156.016 203.547 156.449C203.228 156.878 203.068 157.52 203.068 158.377ZM211.23 154.604L211.278 155.458C211.825 154.797 212.543 154.467 213.432 154.467C214.972 154.467 215.756 155.349 215.783 157.112V162H214.122V157.208C214.122 156.739 214.02 156.392 213.814 156.169C213.614 155.941 213.284 155.827 212.823 155.827C212.153 155.827 211.654 156.13 211.326 156.736V162H209.665V154.604H211.23ZM220.739 162.137C219.687 162.137 218.832 161.806 218.176 161.146C217.524 160.48 217.198 159.596 217.198 158.493V158.288C217.198 157.55 217.34 156.891 217.622 156.312C217.909 155.729 218.31 155.276 218.825 154.952C219.34 154.629 219.914 154.467 220.548 154.467C221.555 154.467 222.332 154.788 222.879 155.431C223.43 156.073 223.706 156.982 223.706 158.158V158.828H218.873C218.923 159.439 219.126 159.922 219.481 160.277C219.841 160.633 220.293 160.811 220.835 160.811C221.596 160.811 222.216 160.503 222.694 159.888L223.59 160.742C223.294 161.184 222.897 161.528 222.4 161.774C221.908 162.016 221.354 162.137 220.739 162.137ZM220.541 155.8C220.085 155.8 219.716 155.959 219.434 156.278C219.156 156.597 218.978 157.042 218.9 157.611H222.065V157.488C222.029 156.932 221.881 156.513 221.621 156.23C221.361 155.943 221.001 155.8 220.541 155.8ZM236.544 162H234.814L230.378 154.938V162H228.648V152.047H230.378L234.828 159.136V152.047H236.544V162ZM242.908 161.275C242.421 161.85 241.728 162.137 240.83 162.137C240.028 162.137 239.42 161.902 239.005 161.433C238.595 160.963 238.39 160.284 238.39 159.396V154.604H240.051V159.375C240.051 160.314 240.44 160.783 241.22 160.783C242.026 160.783 242.571 160.494 242.854 159.915V154.604H244.515V162H242.949L242.908 161.275ZM247.769 154.604L247.816 155.376C248.336 154.77 249.047 154.467 249.949 154.467C250.938 154.467 251.615 154.845 251.979 155.602C252.517 154.845 253.274 154.467 254.249 154.467C255.065 154.467 255.671 154.692 256.067 155.144C256.468 155.595 256.674 156.26 256.683 157.14V162H255.021V157.188C255.021 156.718 254.919 156.374 254.714 156.155C254.509 155.937 254.169 155.827 253.695 155.827C253.317 155.827 253.007 155.93 252.766 156.135C252.529 156.335 252.362 156.6 252.267 156.928L252.273 162H250.612V157.133C250.59 156.262 250.145 155.827 249.279 155.827C248.614 155.827 248.142 156.098 247.864 156.641V162H246.203V154.604H247.769ZM264.879 158.377C264.879 159.525 264.621 160.439 264.106 161.118C263.596 161.797 262.892 162.137 261.994 162.137C261.128 162.137 260.454 161.825 259.971 161.2L259.889 162H258.385V151.5H260.046V155.314C260.524 154.749 261.169 154.467 261.98 154.467C262.883 154.467 263.591 154.802 264.106 155.472C264.621 156.142 264.879 157.078 264.879 158.281V158.377ZM263.218 158.233C263.218 157.431 263.076 156.83 262.794 156.429C262.511 156.028 262.101 155.827 261.563 155.827C260.843 155.827 260.338 156.142 260.046 156.771V159.819C260.342 160.462 260.853 160.783 261.577 160.783C262.097 160.783 262.498 160.59 262.78 160.202C263.063 159.815 263.209 159.229 263.218 158.445V158.233ZM269.534 162.137C268.481 162.137 267.627 161.806 266.971 161.146C266.319 160.48 265.993 159.596 265.993 158.493V158.288C265.993 157.55 266.134 156.891 266.417 156.312C266.704 155.729 267.105 155.276 267.62 154.952C268.135 154.629 268.709 154.467 269.343 154.467C270.35 154.467 271.127 154.788 271.674 155.431C272.225 156.073 272.501 156.982 272.501 158.158V158.828H267.668C267.718 159.439 267.921 159.922 268.276 160.277C268.636 160.633 269.088 160.811 269.63 160.811C270.391 160.811 271.011 160.503 271.489 159.888L272.385 160.742C272.089 161.184 271.692 161.528 271.195 161.774C270.703 162.016 270.149 162.137 269.534 162.137ZM269.336 155.8C268.88 155.8 268.511 155.959 268.229 156.278C267.951 156.597 267.773 157.042 267.695 157.611H270.86V157.488C270.824 156.932 270.676 156.513 270.416 156.23C270.156 155.943 269.796 155.8 269.336 155.8ZM277.669 156.121C277.45 156.085 277.225 156.066 276.992 156.066C276.231 156.066 275.718 156.358 275.454 156.941V162H273.793V154.604H275.379L275.42 155.431C275.821 154.788 276.377 154.467 277.088 154.467C277.325 154.467 277.521 154.499 277.676 154.562L277.669 156.121Z" fill="white"/>
<rect x="88" y="76" width="139" height="32" rx="16" fill="#84B5F3"/>
<path d="M119.219 92.5566H115.131V95.6191H119.909V97H113.401V87.0469H119.861V88.4414H115.131V91.1895H119.219V92.5566ZM122.719 89.6035L122.767 90.376C123.286 89.7699 123.997 89.4668 124.899 89.4668C125.888 89.4668 126.565 89.8451 126.93 90.6016C127.467 89.8451 128.224 89.4668 129.199 89.4668C130.015 89.4668 130.621 89.6924 131.018 90.1436C131.419 90.5947 131.624 91.2601 131.633 92.1396V97H129.972V92.1875C129.972 91.7181 129.869 91.374 129.664 91.1553C129.459 90.9365 129.119 90.8271 128.646 90.8271C128.267 90.8271 127.957 90.9297 127.716 91.1348C127.479 91.3353 127.312 91.5996 127.217 91.9277L127.224 97H125.562V92.1328C125.54 91.2624 125.095 90.8271 124.229 90.8271C123.564 90.8271 123.092 91.0983 122.814 91.6406V97H121.153V89.6035H122.719ZM137.758 97C137.685 96.8587 137.621 96.6286 137.566 96.3096C137.038 96.861 136.391 97.1367 135.625 97.1367C134.882 97.1367 134.276 96.9248 133.807 96.501C133.337 96.0771 133.103 95.5531 133.103 94.9287C133.103 94.1403 133.394 93.5365 133.978 93.1172C134.565 92.6934 135.404 92.4814 136.493 92.4814H137.512V91.9961C137.512 91.6133 137.405 91.3079 137.19 91.0801C136.976 90.8477 136.65 90.7314 136.213 90.7314C135.835 90.7314 135.525 90.8271 135.283 91.0186C135.042 91.2054 134.921 91.4447 134.921 91.7363H133.26C133.26 91.3307 133.394 90.9525 133.663 90.6016C133.932 90.2461 134.297 89.9681 134.757 89.7676C135.222 89.5671 135.739 89.4668 136.309 89.4668C137.174 89.4668 137.865 89.6855 138.38 90.123C138.895 90.556 139.159 91.1667 139.173 91.9551V95.291C139.173 95.9564 139.266 96.4873 139.453 96.8838V97H137.758ZM135.933 95.8037C136.261 95.8037 136.568 95.724 136.855 95.5645C137.147 95.4049 137.366 95.1908 137.512 94.9219V93.5273H136.616C136.001 93.5273 135.538 93.6344 135.229 93.8486C134.919 94.0628 134.764 94.3659 134.764 94.7578C134.764 95.0768 134.868 95.332 135.078 95.5234C135.292 95.7103 135.577 95.8037 135.933 95.8037ZM142.68 97H141.019V89.6035H142.68V97ZM140.916 87.6826C140.916 87.4274 140.996 87.2155 141.155 87.0469C141.319 86.8783 141.552 86.7939 141.853 86.7939C142.153 86.7939 142.386 86.8783 142.55 87.0469C142.714 87.2155 142.796 87.4274 142.796 87.6826C142.796 87.9333 142.714 88.1429 142.55 88.3115C142.386 88.4756 142.153 88.5576 141.853 88.5576C141.552 88.5576 141.319 88.4756 141.155 88.3115C140.996 88.1429 140.916 87.9333 140.916 87.6826ZM146.262 97H144.601V86.5H146.262V97ZM157.295 94.6826H153.439L152.633 97H150.835L154.595 87.0469H156.146L159.913 97H158.108L157.295 94.6826ZM153.925 93.2881H156.81L155.367 89.1592L153.925 93.2881ZM160.576 93.2471C160.576 92.1077 160.84 91.194 161.369 90.5059C161.898 89.8132 162.606 89.4668 163.495 89.4668C164.279 89.4668 164.912 89.7402 165.396 90.2871V86.5H167.057V97H165.553L165.471 96.2344C164.974 96.8359 164.311 97.1367 163.481 97.1367C162.616 97.1367 161.914 96.7881 161.376 96.0908C160.843 95.3936 160.576 94.4456 160.576 93.2471ZM162.237 93.3906C162.237 94.1426 162.381 94.7305 162.668 95.1543C162.96 95.5736 163.372 95.7832 163.905 95.7832C164.584 95.7832 165.081 95.4801 165.396 94.874V91.7158C165.09 91.1234 164.598 90.8271 163.919 90.8271C163.381 90.8271 162.966 91.0413 162.675 91.4697C162.383 91.8936 162.237 92.5339 162.237 93.3906ZM168.479 93.2471C168.479 92.1077 168.743 91.194 169.271 90.5059C169.8 89.8132 170.509 89.4668 171.397 89.4668C172.181 89.4668 172.815 89.7402 173.298 90.2871V86.5H174.959V97H173.455L173.373 96.2344C172.876 96.8359 172.213 97.1367 171.384 97.1367C170.518 97.1367 169.816 96.7881 169.278 96.0908C168.745 95.3936 168.479 94.4456 168.479 93.2471ZM170.14 93.3906C170.14 94.1426 170.283 94.7305 170.57 95.1543C170.862 95.5736 171.274 95.7832 171.808 95.7832C172.487 95.7832 172.983 95.4801 173.298 94.874V91.7158C172.993 91.1234 172.5 90.8271 171.821 90.8271C171.284 90.8271 170.869 91.0413 170.577 91.4697C170.285 91.8936 170.14 92.5339 170.14 93.3906ZM180.564 91.1211C180.346 91.0846 180.12 91.0664 179.888 91.0664C179.127 91.0664 178.614 91.3581 178.35 91.9414V97H176.688V89.6035H178.274L178.315 90.4307C178.716 89.7881 179.272 89.4668 179.983 89.4668C180.22 89.4668 180.416 89.4987 180.571 89.5625L180.564 91.1211ZM184.734 97.1367C183.682 97.1367 182.827 96.8063 182.171 96.1455C181.519 95.4801 181.193 94.596 181.193 93.4932V93.2881C181.193 92.5498 181.335 91.8913 181.617 91.3125C181.904 90.7292 182.305 90.2757 182.82 89.9521C183.335 89.6286 183.91 89.4668 184.543 89.4668C185.55 89.4668 186.327 89.7881 186.874 90.4307C187.425 91.0732 187.701 91.9824 187.701 93.1582V93.8281H182.868C182.918 94.4388 183.121 94.9219 183.477 95.2773C183.837 95.6328 184.288 95.8105 184.83 95.8105C185.591 95.8105 186.211 95.5029 186.689 94.8877L187.585 95.7422C187.289 96.1842 186.892 96.5283 186.396 96.7744C185.903 97.016 185.35 97.1367 184.734 97.1367ZM184.536 90.7998C184.08 90.7998 183.711 90.9593 183.429 91.2783C183.151 91.5973 182.973 92.0417 182.896 92.6113H186.061V92.4883C186.024 91.9323 185.876 91.513 185.616 91.2305C185.356 90.9434 184.996 90.7998 184.536 90.7998ZM193.143 94.9902C193.143 94.694 193.02 94.4684 192.773 94.3135C192.532 94.1585 192.129 94.0218 191.563 93.9033C190.998 93.7848 190.527 93.6344 190.148 93.4521C189.319 93.0511 188.904 92.4701 188.904 91.709C188.904 91.071 189.173 90.5378 189.711 90.1094C190.249 89.681 190.932 89.4668 191.762 89.4668C192.646 89.4668 193.359 89.6855 193.901 90.123C194.448 90.5605 194.722 91.1279 194.722 91.8252H193.061C193.061 91.5062 192.942 91.2419 192.705 91.0322C192.468 90.818 192.154 90.7109 191.762 90.7109C191.397 90.7109 191.099 90.7952 190.866 90.9639C190.638 91.1325 190.524 91.3581 190.524 91.6406C190.524 91.8958 190.632 92.0941 190.846 92.2354C191.06 92.3766 191.493 92.5202 192.145 92.666C192.796 92.8073 193.307 92.9782 193.676 93.1787C194.049 93.3747 194.325 93.6117 194.503 93.8896C194.685 94.1676 194.776 94.5049 194.776 94.9014C194.776 95.5667 194.501 96.1068 193.949 96.5215C193.398 96.9316 192.675 97.1367 191.782 97.1367C191.176 97.1367 190.636 97.0273 190.162 96.8086C189.688 96.5898 189.319 96.2891 189.055 95.9062C188.79 95.5234 188.658 95.111 188.658 94.6689H190.271C190.294 95.0609 190.442 95.3639 190.716 95.5781C190.989 95.7878 191.352 95.8926 191.803 95.8926C192.24 95.8926 192.573 95.8105 192.801 95.6465C193.029 95.4779 193.143 95.2591 193.143 94.9902ZM200.375 94.9902C200.375 94.694 200.252 94.4684 200.006 94.3135C199.764 94.1585 199.361 94.0218 198.796 93.9033C198.231 93.7848 197.759 93.6344 197.381 93.4521C196.551 93.0511 196.137 92.4701 196.137 91.709C196.137 91.071 196.406 90.5378 196.943 90.1094C197.481 89.681 198.165 89.4668 198.994 89.4668C199.878 89.4668 200.591 89.6855 201.134 90.123C201.681 90.5605 201.954 91.1279 201.954 91.8252H200.293C200.293 91.5062 200.174 91.2419 199.938 91.0322C199.701 90.818 199.386 90.7109 198.994 90.7109C198.63 90.7109 198.331 90.7952 198.099 90.9639C197.871 91.1325 197.757 91.3581 197.757 91.6406C197.757 91.8958 197.864 92.0941 198.078 92.2354C198.292 92.3766 198.725 92.5202 199.377 92.666C200.029 92.8073 200.539 92.9782 200.908 93.1787C201.282 93.3747 201.558 93.6117 201.735 93.8896C201.918 94.1676 202.009 94.5049 202.009 94.9014C202.009 95.5667 201.733 96.1068 201.182 96.5215C200.63 96.9316 199.908 97.1367 199.015 97.1367C198.409 97.1367 197.868 97.0273 197.395 96.8086C196.921 96.5898 196.551 96.2891 196.287 95.9062C196.023 95.5234 195.891 95.111 195.891 94.6689H197.504C197.527 95.0609 197.675 95.3639 197.948 95.5781C198.222 95.7878 198.584 95.8926 199.035 95.8926C199.473 95.8926 199.805 95.8105 200.033 95.6465C200.261 95.4779 200.375 95.2591 200.375 94.9902Z" fill="white"/>
<rect x="18" y="19" width="94" height="32" rx="16" fill="#84B5F3"/>
<path d="M51.0479 38.708C50.6878 39.1774 50.1888 39.5329 49.5508 39.7744C48.9128 40.016 48.1882 40.1367 47.377 40.1367C46.543 40.1367 45.8047 39.9476 45.1621 39.5693C44.5195 39.1911 44.0228 38.651 43.6719 37.9492C43.3255 37.2428 43.1455 36.4202 43.1318 35.4814V34.7021C43.1318 33.1982 43.4919 32.0247 44.2119 31.1816C44.932 30.334 45.9368 29.9102 47.2266 29.9102C48.334 29.9102 49.2135 30.1836 49.8652 30.7305C50.5169 31.2773 50.9089 32.0658 51.041 33.0957H49.3457C49.1543 31.8971 48.4593 31.2979 47.2607 31.2979C46.486 31.2979 45.8958 31.5781 45.4902 32.1387C45.0892 32.6947 44.8818 33.5127 44.8682 34.5928V35.3584C44.8682 36.4339 45.0938 37.2702 45.5449 37.8672C46.0007 38.4596 46.6318 38.7559 47.4385 38.7559C48.3226 38.7559 48.9515 38.5553 49.3252 38.1543V36.2061H47.2744V34.8936H51.0479V38.708ZM56.0449 40.1367C54.9922 40.1367 54.1377 39.8063 53.4814 39.1455C52.8298 38.4801 52.5039 37.596 52.5039 36.4932V36.2881C52.5039 35.5498 52.6452 34.8913 52.9277 34.3125C53.2148 33.7292 53.6159 33.2757 54.1309 32.9521C54.6458 32.6286 55.2201 32.4668 55.8535 32.4668C56.8607 32.4668 57.6377 32.7881 58.1846 33.4307C58.736 34.0732 59.0117 34.9824 59.0117 36.1582V36.8281H54.1787C54.2288 37.4388 54.4316 37.9219 54.7871 38.2773C55.1471 38.6328 55.5983 38.8105 56.1406 38.8105C56.9017 38.8105 57.5215 38.5029 58 37.8877L58.8955 38.7422C58.5993 39.1842 58.2028 39.5283 57.7061 39.7744C57.2139 40.016 56.6602 40.1367 56.0449 40.1367ZM55.8467 33.7998C55.391 33.7998 55.0218 33.9593 54.7393 34.2783C54.4613 34.5973 54.2835 35.0417 54.2061 35.6113H57.3711V35.4883C57.3346 34.9323 57.1865 34.513 56.9268 34.2305C56.667 33.9434 56.307 33.7998 55.8467 33.7998ZM61.8486 32.6035L61.8965 33.458C62.4434 32.7972 63.1611 32.4668 64.0498 32.4668C65.5902 32.4668 66.374 33.3486 66.4014 35.1123V40H64.7402V35.208C64.7402 34.7386 64.6377 34.3923 64.4326 34.1689C64.2321 33.9411 63.9017 33.8271 63.4414 33.8271C62.7715 33.8271 62.2725 34.1302 61.9443 34.7363V40H60.2832V32.6035H61.8486ZM67.7891 36.2471C67.7891 35.1077 68.0534 34.194 68.582 33.5059C69.1107 32.8132 69.8193 32.4668 70.708 32.4668C71.4919 32.4668 72.1253 32.7402 72.6084 33.2871V29.5H74.2695V40H72.7656L72.6836 39.2344C72.1868 39.8359 71.5238 40.1367 70.6943 40.1367C69.8285 40.1367 69.1266 39.7881 68.5889 39.0908C68.0557 38.3936 67.7891 37.4456 67.7891 36.2471ZM69.4502 36.3906C69.4502 37.1426 69.5938 37.7305 69.8809 38.1543C70.1725 38.5736 70.585 38.7832 71.1182 38.7832C71.7972 38.7832 72.2939 38.4801 72.6084 37.874V34.7158C72.3031 34.1234 71.8109 33.8271 71.1318 33.8271C70.5941 33.8271 70.1794 34.0413 69.8877 34.4697C69.596 34.8936 69.4502 35.5339 69.4502 36.3906ZM79.2598 40.1367C78.207 40.1367 77.3525 39.8063 76.6963 39.1455C76.0446 38.4801 75.7188 37.596 75.7188 36.4932V36.2881C75.7188 35.5498 75.86 34.8913 76.1426 34.3125C76.4297 33.7292 76.8307 33.2757 77.3457 32.9521C77.8607 32.6286 78.4349 32.4668 79.0684 32.4668C80.0755 32.4668 80.8525 32.7881 81.3994 33.4307C81.9508 34.0732 82.2266 34.9824 82.2266 36.1582V36.8281H77.3936C77.4437 37.4388 77.6465 37.9219 78.002 38.2773C78.362 38.6328 78.8132 38.8105 79.3555 38.8105C80.1165 38.8105 80.7363 38.5029 81.2148 37.8877L82.1104 38.7422C81.8141 39.1842 81.4176 39.5283 80.9209 39.7744C80.4287 40.016 79.875 40.1367 79.2598 40.1367ZM79.0615 33.7998C78.6058 33.7998 78.2367 33.9593 77.9541 34.2783C77.6761 34.5973 77.4984 35.0417 77.4209 35.6113H80.5859V35.4883C80.5495 34.9323 80.4014 34.513 80.1416 34.2305C79.8818 33.9434 79.5218 33.7998 79.0615 33.7998ZM87.3945 34.1211C87.1758 34.0846 86.9502 34.0664 86.7178 34.0664C85.9567 34.0664 85.444 34.3581 85.1797 34.9414V40H83.5186V32.6035H85.1045L85.1455 33.4307C85.5465 32.7881 86.1025 32.4668 86.8135 32.4668C87.0505 32.4668 87.2464 32.4987 87.4014 32.5625L87.3945 34.1211Z" fill="white"/>
<rect x="34" y="210" width="108" height="32" rx="16" fill="#84B5F3"/>
<path d="M60.793 227.302V231H59.0635V221.047H62.8711C63.9831 221.047 64.8649 221.336 65.5166 221.915C66.1729 222.494 66.501 223.259 66.501 224.212C66.501 225.187 66.1797 225.946 65.5371 226.488C64.8991 227.031 64.0036 227.302 62.8506 227.302H60.793ZM60.793 225.914H62.8711C63.4863 225.914 63.9557 225.771 64.2793 225.483C64.6029 225.192 64.7646 224.772 64.7646 224.226C64.7646 223.688 64.6006 223.259 64.2725 222.94C63.9443 222.617 63.4932 222.451 62.9189 222.441H60.793V225.914ZM72.373 228.683H68.5176L67.7109 231H65.9131L69.6729 221.047H71.2246L74.9912 231H73.1865L72.373 228.683ZM69.0029 227.288H71.8877L70.4453 223.159L69.0029 227.288ZM84.0215 231H82.292L77.8555 223.938V231H76.126V221.047H77.8555L82.3057 228.136V221.047H84.0215V231ZM97.1465 227.76C97.0462 228.822 96.6543 229.651 95.9707 230.248C95.2871 230.84 94.3779 231.137 93.2432 231.137C92.4502 231.137 91.7507 230.95 91.1445 230.576C90.543 230.198 90.0781 229.662 89.75 228.97C89.4219 228.277 89.251 227.473 89.2373 226.557V225.627C89.2373 224.688 89.4036 223.861 89.7363 223.146C90.069 222.43 90.5452 221.879 91.165 221.491C91.7894 221.104 92.5094 220.91 93.3252 220.91C94.4235 220.91 95.3076 221.209 95.9775 221.806C96.6475 222.403 97.0371 223.246 97.1465 224.335H95.4238C95.3418 223.619 95.1322 223.104 94.7949 222.79C94.4622 222.471 93.9723 222.312 93.3252 222.312C92.5732 222.312 91.9945 222.587 91.5889 223.139C91.1878 223.686 90.9827 224.49 90.9736 225.552V226.434C90.9736 227.509 91.165 228.329 91.5479 228.895C91.9352 229.46 92.5003 229.742 93.2432 229.742C93.9222 229.742 94.4326 229.59 94.7744 229.284C95.1162 228.979 95.3327 228.471 95.4238 227.76H97.1465ZM102.957 231C102.884 230.859 102.82 230.629 102.766 230.31C102.237 230.861 101.59 231.137 100.824 231.137C100.081 231.137 99.4753 230.925 99.0059 230.501C98.5365 230.077 98.3018 229.553 98.3018 228.929C98.3018 228.14 98.5934 227.536 99.1768 227.117C99.7646 226.693 100.603 226.481 101.692 226.481H102.711V225.996C102.711 225.613 102.604 225.308 102.39 225.08C102.175 224.848 101.85 224.731 101.412 224.731C101.034 224.731 100.724 224.827 100.482 225.019C100.241 225.205 100.12 225.445 100.12 225.736H98.459C98.459 225.331 98.5934 224.952 98.8623 224.602C99.1312 224.246 99.4958 223.968 99.9561 223.768C100.421 223.567 100.938 223.467 101.508 223.467C102.374 223.467 103.064 223.686 103.579 224.123C104.094 224.556 104.358 225.167 104.372 225.955V229.291C104.372 229.956 104.465 230.487 104.652 230.884V231H102.957ZM101.132 229.804C101.46 229.804 101.768 229.724 102.055 229.564C102.346 229.405 102.565 229.191 102.711 228.922V227.527H101.815C101.2 227.527 100.738 227.634 100.428 227.849C100.118 228.063 99.9629 228.366 99.9629 228.758C99.9629 229.077 100.068 229.332 100.277 229.523C100.492 229.71 100.776 229.804 101.132 229.804ZM109.984 225.121C109.766 225.085 109.54 225.066 109.308 225.066C108.547 225.066 108.034 225.358 107.77 225.941V231H106.108V223.604H107.694L107.735 224.431C108.136 223.788 108.692 223.467 109.403 223.467C109.64 223.467 109.836 223.499 109.991 223.562L109.984 225.121ZM110.586 227.247C110.586 226.108 110.85 225.194 111.379 224.506C111.908 223.813 112.616 223.467 113.505 223.467C114.289 223.467 114.922 223.74 115.405 224.287V220.5H117.066V231H115.562L115.48 230.234C114.984 230.836 114.321 231.137 113.491 231.137C112.625 231.137 111.924 230.788 111.386 230.091C110.853 229.394 110.586 228.446 110.586 227.247ZM112.247 227.391C112.247 228.143 112.391 228.73 112.678 229.154C112.969 229.574 113.382 229.783 113.915 229.783C114.594 229.783 115.091 229.48 115.405 228.874V225.716C115.1 225.123 114.608 224.827 113.929 224.827C113.391 224.827 112.976 225.041 112.685 225.47C112.393 225.894 112.247 226.534 112.247 227.391Z" fill="white"/>
<rect x="18" y="133" width="73" height="32" rx="16" fill="#84B5F3"/>
<path d="M51 150.76C50.8997 151.822 50.5078 152.651 49.8242 153.248C49.1406 153.84 48.2314 154.137 47.0967 154.137C46.3037 154.137 45.6042 153.95 44.998 153.576C44.3965 153.198 43.9316 152.662 43.6035 151.97C43.2754 151.277 43.1045 150.473 43.0908 149.557V148.627C43.0908 147.688 43.2572 146.861 43.5898 146.146C43.9225 145.43 44.3988 144.879 45.0186 144.491C45.6429 144.104 46.363 143.91 47.1787 143.91C48.277 143.91 49.1611 144.209 49.8311 144.806C50.501 145.403 50.8906 146.246 51 147.335H49.2773C49.1953 146.619 48.9857 146.104 48.6484 145.79C48.3158 145.471 47.8258 145.312 47.1787 145.312C46.4268 145.312 45.848 145.587 45.4424 146.139C45.0413 146.686 44.8363 147.49 44.8271 148.552V149.434C44.8271 150.509 45.0186 151.329 45.4014 151.895C45.7887 152.46 46.3538 152.742 47.0967 152.742C47.7757 152.742 48.2861 152.59 48.6279 152.284C48.9697 151.979 49.1862 151.471 49.2773 150.76H51ZM54.1582 154H52.4971V146.604H54.1582V154ZM52.3945 144.683C52.3945 144.427 52.4743 144.215 52.6338 144.047C52.7979 143.878 53.0303 143.794 53.3311 143.794C53.6318 143.794 53.8643 143.878 54.0283 144.047C54.1924 144.215 54.2744 144.427 54.2744 144.683C54.2744 144.933 54.1924 145.143 54.0283 145.312C53.8643 145.476 53.6318 145.558 53.3311 145.558C53.0303 145.558 52.7979 145.476 52.6338 145.312C52.4743 145.143 52.3945 144.933 52.3945 144.683ZM58.0547 144.806V146.604H59.3604V147.834H58.0547V151.963C58.0547 152.245 58.1094 152.451 58.2188 152.578C58.3327 152.701 58.5332 152.763 58.8203 152.763C59.0117 152.763 59.2054 152.74 59.4014 152.694V153.979C59.0231 154.084 58.6585 154.137 58.3076 154.137C57.0316 154.137 56.3936 153.433 56.3936 152.024V147.834H55.1768V146.604H56.3936V144.806H58.0547ZM63.2227 151.621L64.7266 146.604H66.4971L63.5576 155.121C63.1064 156.365 62.3408 156.987 61.2607 156.987C61.0192 156.987 60.7526 156.946 60.4609 156.864V155.579L60.7754 155.6C61.1947 155.6 61.5091 155.522 61.7188 155.367C61.9329 155.217 62.1016 154.962 62.2246 154.602L62.4639 153.966L59.8662 146.604H61.6572L63.2227 151.621Z" fill="white"/>
</g>
<defs>
<clipPath id="clip0_2_7">
<rect width="328" height="272" fill="white"/>
</clipPath>
</defs>
</svg>
